<svg width="20" height="20" viewBox="0 0 20 20" fill="none" xmlns="http://www.w3.org/2000/svg">
<path id="Vector" d="M10.3201 1.80853L10.0095 2.15125L9.69889 1.80756C8.62601 0.642025 7.18059 -0.00757764 5.67708 6.67106e-05C4.17357 0.00771106 2.73361 0.671985 1.67045 1.84838C0.6073 3.02477 0.00696881 4.6181 6.02891e-05 6.28176C-0.00684823 7.94541 0.580225 9.54478 1.63356 10.7319L1.94417 11.0756L10.0095 20L18.0748 11.0756L18.3854 10.7319C19.4304 9.54293 20.0104 7.94654 19.9999 6.28806C19.9894 4.62958 19.3892 3.04233 18.3293 1.86964C17.2694 0.696957 15.8349 0.033098 14.336 0.0216607C12.8372 0.0102235 11.3945 0.652127 10.3201 1.80853Z" fill="black"/>
</svg>
